<svg id="SvgjsSvg1001" width="288" height="288" xmlns="http://www.w3.org/2000/svg" version="1.1" xmlns:xlink="http://www.w3.org/1999/xlink" xmlns:svgjs="http://svgjs.com/svgjs"><defs id="SvgjsDefs1002"></defs><g id="SvgjsG1008"><svg xmlns="http://www.w3.org/2000/svg" version="1.0" viewBox="0 0 110 110" width="288" height="288"><circle cx="55" cy="55" r="55" fill="#25d364" class="color25B7D3 svgShape"></circle><path fill="#f0f1f0" d="M27 83V25a2 2 0 1 0-4 0v62h62a2 2 0 1 0 0-4H27z" class="colorF0F1F1 svgShape"></path><path fill="#27b65b" d="M33 67h12v16H33zM51 56h12v27H51zM69 34h12v49H69z" class="color0484AB svgShape"></path><path fill="#87fd99" d="M70.271 44.665c.403-9.111-6.655-16.824-15.766-17.227-9.111-.403-16.824 6.655-17.227 15.766a16.441 16.441 0 0 0 1.632 7.927L24.613 65.465c1.15 3.433 3.442 5.72 6.878 6.861l14.051-14.087a16.425 16.425 0 0 0 7.502 2.193c9.111.402 16.824-6.656 17.227-15.767z" class="color9CE5F4 svgShape"></path><path fill="#c9f8d0" d="M54.505 27.438c-9.111-.404-16.824 6.655-17.227 15.766a16.443 16.443 0 0 0 1.632 7.927L24.613 65.465c.64 1.913 1.649 3.456 2.999 4.657L65.45 32.284c-2.817-2.825-6.646-4.656-10.945-4.846z" class="colorC9F2F8 svgShape"></path><circle cx="53.775" cy="43.934" r="11.795" fill="#40e759" class="color40C9E7 svgShape"></circle><path fill="#6ff183" d="M54.296 32.151c-6.508-.288-12.017 4.754-12.305 11.261-.153 3.448 1.2 6.606 3.465 8.865l16.661-16.662a11.737 11.737 0 0 0-7.821-3.464z" class="color6FDAF1 svgShape"></path><path fill="#2d844d" d="M38.91 51.131L24.613 65.465c1.15 3.433 3.442 5.72 6.878 6.861l14.051-14.087a16.588 16.588 0 0 1-6.632-7.108z" class="color84462D svgShape"></path><path fill="#449c64" d="M38.91 51.131L24.613 65.465c.64 1.913 1.649 3.456 2.999 4.657L42.124 55.61a16.502 16.502 0 0 1-3.214-4.479z" class="color9C6144 svgShape"></path><path fill="#07f32b" d="M42.506 61.281l3.035-3.043a16.572 16.572 0 0 1-6.631-7.107l-3.282 3.29 6.878 6.86z" class="colorF3B607 svgShape"></path><path fill="#58fb71" d="M38.91 51.131l-3.282 3.29 3.847 3.838 2.648-2.648a16.54 16.54 0 0 1-3.213-4.48z" class="colorFBE158 svgShape"></path></svg></g></svg>